<svg width="46" height="47" viewBox="0 0 46 47" fill="none" xmlns="http://www.w3.org/2000/svg">
<path d="M23 26.9036C27.2282 26.9036 30.6667 23.4651 30.6667 19.237C30.6667 15.0088 27.2282 11.5703 23 11.5703C18.7718 11.5703 15.3333 15.0088 15.3333 19.237C15.3333 23.4651 18.7718 26.9036 23 26.9036ZM23 15.4036C25.1141 15.4036 26.8333 17.1229 26.8333 19.237C26.8333 21.3511 25.1141 23.0703 23 23.0703C20.8859 23.0703 19.1667 21.3511 19.1667 19.237C19.1667 17.1229 20.8859 15.4036 23 15.4036Z" fill="white"/>
<path d="M21.8884 41.8804C22.2128 42.1121 22.6015 42.2366 23.0001 42.2366C23.3987 42.2366 23.7874 42.1121 24.1117 41.8804C24.6944 41.4683 38.389 31.5802 38.3334 19.2369C38.3334 10.7825 31.4545 3.90356 23.0001 3.90356C14.5457 3.90356 7.66675 10.7825 7.66675 19.2273C7.61116 31.5802 21.3057 41.4683 21.8884 41.8804ZM23.0001 7.7369C29.3423 7.7369 34.5001 12.8946 34.5001 19.2465C34.5403 27.7526 26.0897 35.3906 23.0001 37.8956C19.9123 35.3887 11.4598 27.7488 11.5001 19.2369C11.5001 12.8946 16.6578 7.7369 23.0001 7.7369Z" fill="white"/>
</svg>
