<svg width="42" height="42" viewBox="0 0 42 42" fill="none" xmlns="http://www.w3.org/2000/svg">
<path d="M36.1981 4.55322H6.73898C6.03052 4.55322 5.45815 5.12559 5.45815 5.83405V35.2932C5.45815 36.0016 6.03052 36.574 6.73898 36.574H36.1981C36.9066 36.574 37.4789 36.0016 37.4789 35.2932V5.83405C37.4789 5.12559 36.9066 4.55322 36.1981 4.55322ZM14.9563 31.8389H10.2052V16.557H14.9563V31.8389ZM12.5828 14.4677C12.0381 14.4677 11.5057 14.3061 11.0529 14.0036C10.6 13.701 10.247 13.2709 10.0386 12.7677C9.83018 12.2645 9.77565 11.7108 9.8819 11.1766C9.98816 10.6424 10.2504 10.1518 10.6356 9.76665C11.0207 9.38152 11.5114 9.11925 12.0455 9.013C12.5797 8.90674 13.1334 8.96127 13.6366 9.1697C14.1398 9.37813 14.5699 9.73109 14.8725 10.1839C15.1751 10.6368 15.3366 11.1692 15.3366 11.7139C15.3326 13.2349 14.0998 14.4677 12.5828 14.4677ZM32.7439 31.8389H27.9968V24.4061C27.9968 22.633 27.9648 20.3555 25.5272 20.3555C23.0576 20.3555 22.6773 22.2847 22.6773 24.278V31.8389H17.9342V16.557H22.4892V18.6464H22.5532C23.1857 17.4456 24.7347 16.1768 27.0482 16.1768C31.8593 16.1768 32.7439 19.3428 32.7439 23.4575V31.8389Z" fill="white"/>
</svg>
