<svg width="152" height="24" viewBox="0 0 152 24" fill="none" xmlns="http://www.w3.org/2000/svg">
<path d="M12 0L14.6942 8.2918H23.4127L16.3593 13.4164L19.0534 21.7082L12 16.5836L4.94658 21.7082L7.64074 13.4164L0.587322 8.2918H9.30583L12 0Z" fill="#4452FE"/>
<path d="M44 0L46.6942 8.2918H55.4127L48.3593 13.4164L51.0534 21.7082L44 16.5836L36.9466 21.7082L39.6407 13.4164L32.5873 8.2918H41.3058L44 0Z" fill="#4452FE"/>
<path d="M76 0L78.6942 8.2918H87.4127L80.3593 13.4164L83.0534 21.7082L76 16.5836L68.9466 21.7082L71.6407 13.4164L64.5873 8.2918H73.3058L76 0Z" fill="#4452FE"/>
<path d="M108 0L110.694 8.2918H119.413L112.359 13.4164L115.053 21.7082L108 16.5836L100.947 21.7082L103.641 13.4164L96.5873 8.2918H105.306L108 0Z" fill="#4452FE"/>
<path d="M140 1.61804L142.219 8.4463L142.331 8.7918H142.694H149.874L144.065 13.0119L143.771 13.2254L143.884 13.5709L146.102 20.3992L140.294 16.1791L140 15.9656L139.706 16.1791L133.898 20.3992L136.116 13.5709L136.229 13.2254L135.935 13.0119L130.126 8.7918H137.306H137.669L137.781 8.4463L140 1.61804Z" stroke="#4452FE"/>
</svg>
